# xmcd CD database file
#
# Track frame offsets:
#	150
#	12900
#	26974
#	40460
#	53547
#	78737
#	91139
#	104796
#	117849
#	128625
#	141186
#	152366
#	165965
#	182487
#	196847
#	210576
#	224465
#	237641
#	248540
#	263329
#	279771
#	294598
#	307539
#	320403
#	333452
#
# Disc length: 4760 seconds
#
# Revision: 2
# Processed by: cddbd v1.5.2PL0 Copyright (c) Steve Scherf et al.
# Submitted via: CDex 1.51
#
DISCID=50129619
DTITLE=Bud Powell - Dance of the Infidels, cd 1
DYEAR=1947
DGENRE=Jazz
TTITLE0=West End Blues
TTITLE1=Jay Jay
TTITLE2=Bouncing With Bud
TTITLE3=Epistrophy
TTITLE4=Boppin' a Riff
TTITLE5=Indiana
TTITLE6=I Should Care
TTITLE7=I'll Remember April
TTITLE8=Off Minor
TTITLE9=Chasin' The Bird
TTITLE10=Tempus Fugit
TTITLE11=Celia
TTITLE12=Cherokee
TTITLE13=Strictly Confidentiel
TTITLE14=All God's Chillun Got Rhythm
TTITLE15=Bouncing With Bud
TTITLE16=Dance Of The Infidels
TTITLE17=Ornithology
TTITLE18=You Go To My Heads
TTITLE19=Sometimes I'm Happy
TTITLE20=So Sorry Please
TTITLE21=Yesterdays
TTITLE22=Sweet Georgia BRown
TTITLE23=Get Happy
TTITLE24=Round About Midnight
EXTD=YEAR: 1947
EXTT0=
EXTT1=
EXTT2=
EXTT3=
EXTT4=
EXTT5=
EXTT6=
EXTT7=
EXTT8=
EXTT9=
EXTT10=
EXTT11=
EXTT12=
EXTT13=
EXTT14=
EXTT15=
EXTT16=
EXTT17=
EXTT18=
EXTT19=
EXTT20=
EXTT21=
EXTT22=
EXTT23=
EXTT24=
PLAYORDER=
